<svg xmlns="http://www.w3.org/2000/svg" viewBox="0 0 400 300" width="406" height="306" class="illustration styles_illustrationTablet__1DWOa"><g id="_331_shopping_cart_flatline" data-name="#331_shopping_cart_flatline"><path d="M332.76,230.24H67.24a.5.5,0,0,1,0-1H332.76a.5.5,0,0,1,0,1Z" fill="#d1d3d4"></path><path d="M130.81,247.05l-1,8.27s7.76.38,7.89,0,2.67-10.72,2.67-10.72Z" fill="#fff"></path><path d="M135.38,256c-1.22,0-3-.05-5.61-.18a.5.5,0,0,1-.36-.18.51.51,0,0,1-.12-.38l1-8.27a.53.53,0,0,1,.38-.43l9.54-2.44a.48.48,0,0,1,.47.13.49.49,0,0,1,.14.47c-.26,1.06-2.56,10.37-2.68,10.76S138,256,135.38,256Zm-5-1.15c3,.13,6.07.19,6.92.08.29-1.12,1.49-6,2.4-9.64l-8.41,2.16Z" fill="#231f20"></path><path d="M88.83,234.47l-4.42,7.06s6.87,3.63,7.15,3.34,7-8.58,7-8.58Z" fill="#fff"></path><path d="M91.56,245.38c-.56,0-2.09-.61-7.38-3.41a.46.46,0,0,1-.25-.31.45.45,0,0,1,.06-.39l4.42-7.07a.51.51,0,0,1,.52-.22l9.68,1.82a.5.5,0,0,1,.3.81c-.69.85-6.71,8.31-7,8.6A.4.4,0,0,1,91.56,245.38Zm-6.44-4c2.62,1.37,5.42,2.75,6.23,3,.74-.9,3.87-4.77,6.25-7.72L89.08,235Z" fill="#231f20"></path><path d="M109.69,142.19c1.91,1.15,18.8,40.46,21,44.1s-2.07,62.55-2.07,62.55H141s13.74-47.28,13.74-59.4-16-51.74-16-51.74l-29,1" fill="#231f20"></path><path d="M141,249.34H128.66a.5.5,0,0,1-.5-.54c1.73-23.62,3.73-59.69,2.15-62.25-.91-1.47-4.08-8.48-7.76-16.6-5.06-11.16-12-26.45-13.13-27.34a.5.5,0,0,1-.16-.68.51.51,0,0,1,.69-.16c1.09.66,5,9.1,13.51,27.77,3.66,8.09,6.82,15.07,7.69,16.48,2.21,3.58-1.37,54.21-2,62.32h11.42c1.27-4.4,13.62-47.54,13.62-58.9S139.89,142,138.37,138.21l-28.66,1a.5.5,0,1,1,0-1l29-1a.49.49,0,0,1,.48.31c.66,1.62,16.07,39.84,16.07,51.92S142,247.05,141.47,249A.51.51,0,0,1,141,249.34Z" fill="#231f20"></path><path d="M105.21,145.34,107,186.68,85.26,235l10.82,6.57c.55,1.42,28.39-38.63,31.5-50.82,2.15-8.39.26-48.57.26-48.57Z" fill="#231f20"></path><path d="M96.15,242.11a.54.54,0,0,1-.32-.11h0L85,235.44a.5.5,0,0,1-.2-.63l21.65-48.23-1.74-41.22a.51.51,0,0,1,.43-.51l22.63-3.15a.5.5,0,0,1,.57.47c.08,1.64,1.86,40.35-.28,48.72-3,11.69-29.76,51.1-31.89,51.22Zm-10.26-7.29L96.14,241c3-2.57,28-38.79,31-50.39,2-7.7.48-43,.27-47.88l-21.64,3,1.72,40.88a.45.45,0,0,1,0,.23Z" fill="#231f20"></path><path d="M129.79,255.32l-1.14,6.36s20.48,1.27,19.85,0-10.82-6.36-10.82-6.36Z" fill="#231f20"></path><path d="M142.9,262.75c-4,0-9.42-.27-14.28-.57a.5.5,0,0,1-.46-.59l1.14-6.36a.5.5,0,0,1,.49-.41h7.89a.43.43,0,0,1,.22.06c2.43,1.21,10.38,5.26,11,6.58a.62.62,0,0,1,0,.62C148.58,262.57,146.22,262.75,142.9,262.75Zm-13.66-1.53c7.85.47,16.38.73,18.49.35a82.35,82.35,0,0,0-10.17-5.75h-7.35Z" fill="#231f20"></path><path d="M84.41,241.53l-.6.71c-1.08,1.3-3.2,4-2.63,4.69.77.89,17.75,10.95,17.34,10.31s-7-12.37-7-12.37" fill="#231f20"></path><path d="M98.59,257.75c-.47,0-1.91-.71-8.82-4.82-2-1.16-8.4-5-9-5.67-.28-.32-.92-1.07,2.62-5.34.36-.44.61-.72.61-.72a.49.49,0,0,1,.7,0,.48.48,0,0,1,0,.7s-.24.27-.59.69c-2.2,2.66-2.66,3.85-2.6,4.1.61.64,11.78,7.35,15.72,9.49-1.8-3.16-6-10.64-6.19-11a.49.49,0,0,1,.2-.67.48.48,0,0,1,.67.19c2.27,4.05,6.63,11.85,7,12.34a.54.54,0,0,1-.12.7A.37.37,0,0,1,98.59,257.75Z" fill="#231f20"></path><rect x="278.66" y="152.17" width="33.4" height="52.4" transform="translate(-1.09 1.82) rotate(-0.35)" fill="#e6e7e8"></rect><path d="M278.82,205.13a.48.48,0,0,1-.46-.46L278,152.28a.45.45,0,0,1,.46-.46l33.39-.21a.41.41,0,0,1,.33.13.49.49,0,0,1,.13.33l.32,52.39a.45.45,0,0,1-.45.46l-33.4.21Zm.14-52.4.31,51.48,32.49-.2-.32-51.48Z" fill="#231f20"></path><rect x="227.19" y="165.96" width="47.2" height="40.53" transform="translate(-24.45 38.51) rotate(-8.37)" fill="#ff3f6c"></rect><path d="M230.39,210.16a.45.45,0,0,1-.45-.39l-5.9-40.1a.43.43,0,0,1,.08-.33.42.42,0,0,1,.3-.18l46.69-6.88a.46.46,0,0,1,.52.39l5.91,40.1a.52.52,0,0,1-.09.34.49.49,0,0,1-.3.18l-46.69,6.87ZM225,170l5.77,39.2,45.78-6.74-5.76-39.2Z" fill="#231f20"></path><rect x="222.52" y="139.94" width="37.01" height="25.13" transform="translate(-26.17 52.73) rotate(-11.85)" fill="#e6e7e8"></rect><path d="M225.5,169.06a.47.47,0,0,1-.45-.37l-5.16-24.59a.45.45,0,0,1,.07-.34.44.44,0,0,1,.28-.2l36.22-7.6a.49.49,0,0,1,.35.07.42.42,0,0,1,.19.29l5.16,24.59a.45.45,0,0,1-.35.54l-36.22,7.6Zm-4.62-24.7,5,23.7,35.32-7.41-5-23.7Z" fill="#231f20"></path><rect x="262.82" y="128.86" width="27.6" height="20.1" transform="translate(-17.68 42.99) rotate(-8.61)" fill="#231f20"></rect><path d="M264.48,151.37a.42.42,0,0,1-.27-.09.46.46,0,0,1-.19-.3l-3-19.87a.45.45,0,0,1,.38-.52l27.28-4.13a.45.45,0,0,1,.52.38l3,19.87a.45.45,0,0,1-.08.34.42.42,0,0,1-.3.18l-27.29,4.14ZM262,131.43l2.87,19,26.38-4-2.87-19Z" fill="#231f20"></path><rect x="236.52" y="120.82" width="27.8" height="12.8" transform="translate(-30.45 124.74) rotate(-26.43)" fill="#ff3f6c"></rect><path d="M240.82,139.59a.46.46,0,0,1-.41-.25l-5.69-11.47a.45.45,0,0,1,0-.34.51.51,0,0,1,.23-.27l24.9-12.37a.47.47,0,0,1,.35,0,.45.45,0,0,1,.26.23l5.7,11.46a.47.47,0,0,1,0,.35.45.45,0,0,1-.23.26L241,139.54A.54.54,0,0,1,240.82,139.59Zm-5.08-11.71L241,138.52l24.07-12-5.29-10.65Z" fill="#231f20"></path><rect x="296.46" y="132.24" width="13.7" height="15.7" transform="translate(-29.79 114.26) rotate(-20.36)" fill="#fff"></rect><path d="M299.62,150.28a.41.41,0,0,1-.19,0,.45.45,0,0,1-.24-.25l-5.46-14.72a.46.46,0,0,1,.27-.59l12.84-4.76a.46.46,0,0,1,.59.27l5.46,14.71a.45.45,0,0,1-.27.59l-12.84,4.77Zm-4.88-14.9,5.15,13.86,12-4.45-5.14-13.86Z" fill="#231f20"></path><rect x="258.09" y="148.05" width="14.8" height="14.8" transform="translate(-17.77 35.39) rotate(-7.38)" fill="#e6e7e8"></rect><path d="M259.1,164.19a.46.46,0,0,1-.45-.4l-1.9-14.67a.46.46,0,0,1,.09-.34.4.4,0,0,1,.3-.17l14.68-1.91a.46.46,0,0,1,.51.4l1.9,14.68a.45.45,0,0,1-.39.51l-14.68,1.9Zm-1.39-14.74,1.79,13.77,13.77-1.78-1.79-13.77Z" fill="#231f20"></path><circle cx="232.33" cy="254.92" r="7.63" fill="#231f20"></circle><path d="M232.33,263.05a8.13,8.13,0,1,1,8.13-8.13A8.14,8.14,0,0,1,232.33,263.05Zm0-15.26a7.13,7.13,0,1,0,7.13,7.13A7.14,7.14,0,0,0,232.33,247.79Z" fill="#231f20"></path><path d="M230.64,243.71v9.85c0,2.55,2.92,2.7,4.25,0s4.17-10.19,4.17-10.19Z" fill="#e6e7e8"></path><path d="M232.29,256a1.86,1.86,0,0,1-.48,0,2.23,2.23,0,0,1-1.62-2.37v-9.85a.46.46,0,0,1,.43-.46l8.43-.33a.46.46,0,0,1,.39.18.44.44,0,0,1,.05.43c-.11.31-2.87,7.55-4.19,10.24A3.54,3.54,0,0,1,232.29,256Zm-1.19-11.83v9.41c0,.81.33,1.34.92,1.48s1.77-.29,2.46-1.68c1.07-2.18,3.19-7.63,3.91-9.5Z" fill="#231f20"></path><circle cx="296.42" cy="254.92" r="7.63" fill="#231f20"></circle><path d="M296.42,263.05a8.13,8.13,0,1,1,8.14-8.13A8.14,8.14,0,0,1,296.42,263.05Zm0-15.26a7.13,7.13,0,1,0,7.14,7.13A7.14,7.14,0,0,0,296.42,247.79Z" fill="#231f20"></path><path d="M294.74,243.71v9.85c0,2.55,2.92,2.7,4.24,0s4.18-10.19,4.18-10.19Z" fill="#e6e7e8"></path><path d="M296.38,256a1.83,1.83,0,0,1-.47,0,2.23,2.23,0,0,1-1.63-2.37v-9.85a.47.47,0,0,1,.44-.46l8.42-.33a.45.45,0,0,1,.39.18.47.47,0,0,1,.06.43c-.12.31-2.88,7.55-4.2,10.24A3.52,3.52,0,0,1,296.38,256Zm-1.18-11.83v9.41c0,.81.33,1.34.91,1.48s1.78-.29,2.46-1.68c1.08-2.18,3.19-7.63,3.92-9.5Z" fill="#231f20"></path><path d="M321.9,163h0l-118.12-6.24a.51.51,0,0,1-.48-.53.5.5,0,0,1,.53-.47L321.92,162a.51.51,0,0,1,.48.53A.5.5,0,0,1,321.9,163Z" fill="#231f20"></path><path d="M211.86,177.56a.49.49,0,0,1-.5-.49.51.51,0,0,1,.49-.51l109.09-1.07h0a.5.5,0,0,1,0,1l-109.09,1.07Z" fill="#231f20"></path><path d="M222.93,201a.5.5,0,0,1,0-1l96.05-7a.5.5,0,1,1,.07,1l-96,7Z" fill="#231f20"></path><path d="M231,216.41a8,8,0,0,1-7.44-5.08c-14.72-37.91-24.66-62.72-26.07-65-1.18-.87-8.21-2.66-14.17-3.83a1.5,1.5,0,1,1,.58-2.94c4.14.81,14,2.9,15.77,4.7.43.43,1.74,1.73,26.69,66a5,5,0,0,0,5,3.16l80-6.8a4.75,4.75,0,0,0,4.3-4.16l4.75-40.11a1.5,1.5,0,0,1,1.66-1.32,1.52,1.52,0,0,1,1.32,1.67l-4.75,40.11a7.77,7.77,0,0,1-7,6.8l-80,6.79Zm-33.45-70.06h0Z" fill="#231f20"></path><path d="M186.57,138l-1.91,6.78-15.61-4.23a2.89,2.89,0,0,1-2-3.59h0a2.88,2.88,0,0,1,3.32-2Z" fill="#fff"></path><path d="M184.66,145.31l-.13,0-15.61-4.23a3.38,3.38,0,0,1-2.07-1.61,3.33,3.33,0,0,1-.3-2.6,3.37,3.37,0,0,1,3.89-2.39l16.22,3.07a.49.49,0,0,1,.33.23.56.56,0,0,1,.06.4L185.14,145A.49.49,0,0,1,184.66,145.31Zm-14.86-9.92a2.4,2.4,0,0,0-.62,4.71l15.13,4.1,1.63-5.78-15.69-3A2.3,2.3,0,0,0,169.8,135.39Z" fill="#231f20"></path><path d="M238.81,213.91a.49.49,0,0,1-.47-.35l-18.23-56.19a.5.5,0,0,1,.32-.63.49.49,0,0,1,.63.32l18.23,56.19a.5.5,0,0,1-.32.63A.45.45,0,0,1,238.81,213.91Z" fill="#231f20"></path><path d="M246.88,213.47a.5.5,0,0,1-.48-.37L231,157.86a.5.5,0,0,1,.35-.62.51.51,0,0,1,.62.35l15.44,55.24a.5.5,0,0,1-.35.62Z" fill="#231f20"></path><path d="M254.68,212.79a.5.5,0,0,1-.49-.38l-13.37-54a.48.48,0,0,1,.36-.6.5.5,0,0,1,.61.36l13.37,54a.49.49,0,0,1-.36.6Z" fill="#231f20"></path><path d="M261.91,212.06a.49.49,0,0,1-.49-.41l-10.25-52.76a.5.5,0,1,1,1-.19l10.24,52.76a.51.51,0,0,1-.4.59Z" fill="#231f20"></path><path d="M269.79,211.19a.5.5,0,0,1-.49-.42l-8.77-51.25a.5.5,0,0,1,.41-.58.49.49,0,0,1,.58.41l8.76,51.25a.51.51,0,0,1-.41.58Z" fill="#231f20"></path><path d="M277.73,210.24a.5.5,0,0,1-.5-.43l-6.77-49.93a.5.5,0,0,1,.42-.57.51.51,0,0,1,.57.43l6.77,49.93a.5.5,0,0,1-.43.57Z" fill="#231f20"></path><path d="M285.39,209.27a.52.52,0,0,1-.5-.46l-4.34-48.42a.5.5,0,0,1,1-.09l4.34,48.42a.51.51,0,0,1-.45.55Z" fill="#231f20"></path><path d="M293.58,208.17a.51.51,0,0,1-.5-.47L290,160.88a.5.5,0,0,1,.47-.54.52.52,0,0,1,.53.47l3.07,46.82a.49.49,0,0,1-.46.53Z" fill="#231f20"></path><path d="M301.37,209.27a.5.5,0,0,1-.5-.49l-1.13-47.41a.5.5,0,0,1,.49-.51.51.51,0,0,1,.51.49l1.13,47.41a.52.52,0,0,1-.49.51Z" fill="#231f20"></path><path d="M309.94,207.89a.5.5,0,0,1-.5-.5V161.87a.5.5,0,0,1,.5-.5.5.5,0,0,1,.5.5v45.52A.5.5,0,0,1,309.94,207.89Z" fill="#231f20"></path><path d="M306.06,245.6h-82a4.12,4.12,0,0,1-3.7-5.95l12.33-24.93a1.5,1.5,0,1,1,2.69,1.33L223.06,241a1.12,1.12,0,0,0,1,1.62h82a1.5,1.5,0,0,1,0,3Z" fill="#231f20"></path><path d="M127.59,69.36a2.89,2.89,0,0,1-3.76-1.4,2,2,0,0,1-.28-1.81,1.09,1.09,0,0,1,1.55-.57,22.29,22.29,0,0,1-3.43-5.75,7.63,7.63,0,0,1,.41-6.49c-1.63-.86-3.37-1.83-4.18-3.49a5.28,5.28,0,0,1,1.48-6.07,7.76,7.76,0,0,1,6.33-1.51,4,4,0,0,0-2.09-2.47c2.45-2.34,6-3.1,9.39-3.23,5.62-.21,11.52,1.23,15.6,5.09a13.75,13.75,0,0,1,4.22,11.6c-.83,5.66-4.87,3.08-8.69,5.2-1.89,1-3.18,2.94-4.8,4.33-2.73,2.34-6.24,3-9,5A11.64,11.64,0,0,1,127.59,69.36Z" fill="#fff"></path><path d="M126.34,70.09a3.41,3.41,0,0,1-2.94-1.87,2.55,2.55,0,0,1-.32-2.26,1.74,1.74,0,0,1,1-.93,20,20,0,0,1-2.87-5,8.17,8.17,0,0,1,.2-6.45,8.73,8.73,0,0,1-4-3.47,5.79,5.79,0,0,1,1.61-6.67,8,8,0,0,1,5.86-1.73,3.51,3.51,0,0,0-1.51-1.42.51.51,0,0,1-.28-.37.49.49,0,0,1,.15-.44c2.17-2.08,5.44-3.21,9.71-3.37,6.49-.23,12.16,1.62,16,5.23a14.28,14.28,0,0,1,4.37,12c-.59,4-2.79,4.29-5.13,4.57a9.91,9.91,0,0,0-3.81,1,13.11,13.11,0,0,0-3,2.58,23,23,0,0,1-1.73,1.69,20.3,20.3,0,0,1-5.12,2.94,22.93,22.93,0,0,0-3.87,2.06,12,12,0,0,1-2.92,1.66h0A4.36,4.36,0,0,1,126.34,70.09Zm1.25-.73h0Zm-3-3.43a.32.32,0,0,0-.14,0,.7.7,0,0,0-.46.39,1.58,1.58,0,0,0,.24,1.36,2.4,2.4,0,0,0,3.17,1.19h0a11.16,11.16,0,0,0,2.66-1.53,23.56,23.56,0,0,1,4-2.16A19.8,19.8,0,0,0,139,62.41a22.89,22.89,0,0,0,1.66-1.62A14,14,0,0,1,143.9,58a10.68,10.68,0,0,1,4.17-1.12c2.28-.27,3.78-.45,4.26-3.72A13.24,13.24,0,0,0,148.26,42c-4.86-4.61-11.63-5.08-15.23-5s-6.58,1-8.56,2.65a4.51,4.51,0,0,1,1.72,2.41.48.48,0,0,1-.11.47.48.48,0,0,1-.45.16,7.26,7.26,0,0,0-5.92,1.4,4.75,4.75,0,0,0-1.36,5.47c.71,1.46,2.22,2.34,4,3.27a.52.52,0,0,1,.25.31.56.56,0,0,1-.06.4,7.1,7.1,0,0,0-.37,6,22.29,22.29,0,0,0,3.36,5.62.5.5,0,0,1-.7.7A.32.32,0,0,0,124.61,65.93Z" fill="#231f20"></path><path d="M147.62,59.23s2.69,6,1.77,7-3.27-.15-3.27-.15" fill="#fff"></path><path d="M148.25,67.15a6,6,0,0,1-2.35-.61.5.5,0,1,1,.44-.9c.65.33,2.17.81,2.68.26.35-.45-.51-3.47-1.85-6.47a.5.5,0,1,1,.91-.41c.85,1.9,2.71,6.44,1.67,7.56A1.94,1.94,0,0,1,148.25,67.15Z" fill="#231f20"></path><path d="M148,51.94c2,2.24.66,6.06.22,8.62q-.93,5.4-2.11,10.74c-.5,2.26-6.42,1.34-7.35.48l-.7,7.64s-2.07,3.94-6.48,1-5-6.23-5-6.23l2.11-10.35s3.9.68,7-3.59,4.17-11.44,4.17-11.44S146.12,49.75,148,51.94Z" fill="#fff"></path><path d="M134.73,82a6.15,6.15,0,0,1-3.39-1.21c-4.52-3.08-5.2-6.41-5.23-6.55a.41.41,0,0,1,0-.19l2.11-10.35a.49.49,0,0,1,.57-.39c.15,0,3.65.55,6.49-3.4,3-4.12,4.06-11.14,4.07-11.21a.5.5,0,0,1,.2-.33.49.49,0,0,1,.37-.09c.27,0,6.46,1,8.49,3.34h0c1.8,2,1.14,5.16.61,7.66-.1.49-.2.95-.28,1.38-.62,3.58-1.33,7.2-2.11,10.76A2.16,2.16,0,0,1,145,73a10.34,10.34,0,0,1-5.76-.37l-.63,6.88a.6.6,0,0,1-.06.19,4.76,4.76,0,0,1-2.82,2.22A4.07,4.07,0,0,1,134.73,82Zm-7.61-7.86c.13.51,1,3.26,4.78,5.82a4.49,4.49,0,0,0,3.57,1,3.69,3.69,0,0,0,2.14-1.64l.69-7.52a.51.51,0,0,1,.84-.33,8.82,8.82,0,0,0,5.55.59c.57-.18.89-.45,1-.81.78-3.54,1.49-7.14,2.11-10.72.07-.43.18-.91.28-1.41.49-2.28,1.09-5.12-.38-6.79s-5.92-2.65-7.4-2.93c-.31,1.74-1.5,7.44-4.17,11.15s-5.78,3.88-7,3.84Z" fill="#231f20"></path><path d="M146.5,68.6s-3.07,1.26-4.08-1.87" fill="#fff"></path><path d="M145.13,69.35a3.24,3.24,0,0,1-1.42-.3,3.4,3.4,0,0,1-1.77-2.17.5.5,0,0,1,1-.31,2.43,2.43,0,0,0,1.22,1.57,3.16,3.16,0,0,0,2.2,0,.5.5,0,1,1,.37.93A4.74,4.74,0,0,1,145.13,69.35Z" fill="#231f20"></path><path d="M139,59.61a4.88,4.88,0,0,0-.6-2.64,7.13,7.13,0,0,0-1-1.85,2.41,2.41,0,0,0-1.84-.91,2.22,2.22,0,0,0-1.6.89,4.19,4.19,0,0,0-.75,1.71,7.86,7.86,0,0,0,2.44,7.44l-.17-.25" fill="#fff"></path><path d="M135.59,64.75a.46.46,0,0,1-.33-.13,8.36,8.36,0,0,1-2.59-7.92,4.53,4.53,0,0,1,.84-1.92,2.68,2.68,0,0,1,2-1.07,2.85,2.85,0,0,1,2.24,1.09,7.78,7.78,0,0,1,1.11,2,5.37,5.37,0,0,1,.64,2.91.49.49,0,0,1-.57.42.5.5,0,0,1-.42-.56,4.66,4.66,0,0,0-.56-2.37,6.69,6.69,0,0,0-1-1.72,1.93,1.93,0,0,0-1.44-.74,1.73,1.73,0,0,0-1.23.7,3.72,3.72,0,0,0-.65,1.51,7.34,7.34,0,0,0,1.9,6.59.47.47,0,0,1,.3.22L136,64a.52.52,0,0,1-.09.65A.48.48,0,0,1,135.59,64.75Z" fill="#231f20"></path><path d="M138.8,71.78a9.76,9.76,0,0,1-4-3.79s-.7,5.51,3.74,7.88Z" fill="#231f20"></path><path d="M138.55,76.37a.53.53,0,0,1-.24-.06c-4.68-2.5-4-8.33-4-8.38a.51.51,0,0,1,.42-.44.52.52,0,0,1,.53.29A9.3,9.3,0,0,0,139,71.33a.51.51,0,0,1,.28.48l-.25,4.09a.49.49,0,0,1-.26.4A.42.42,0,0,1,138.55,76.37Zm-3.25-6.72A7.05,7.05,0,0,0,138.1,75l.18-2.94A11.54,11.54,0,0,1,135.3,69.65Z" fill="#231f20"></path><ellipse cx="145.99" cy="56.4" rx="1.3" ry="0.51" transform="translate(45.17 176.1) rotate(-71.02)" fill="#231f20"></ellipse><path d="M120.41,73.68S136,76.3,139,85.3s-2,38,0,40.69,7,20.21,7,20.76c0,4.87-42,6.44-42,6.44s-1.06-21.15-1.4-34S109,70.72,120.41,73.68Z" fill="#ff3f6c"></path><path d="M143.82,138a.45.45,0,0,1-.16,0,.5.5,0,0,1-.34-.47c-.1-.47-1.22-3.11-2.2-5.45-1.41-3.33-2.87-6.78-3.1-7.81s.2-9.17.84-19.51c.28-4.53.52-8.44.56-9.92a55,55,0,0,0-.95-9.42.5.5,0,0,1,1-.19,54.09,54.09,0,0,1,1,9.63c0,1.5-.28,5.42-.56,10-.48,7.64-1.13,18.1-.87,19.23.22.94,1.72,4.5,3,7.64,2.38,5.65,2.36,5.71,2.26,6A.52.52,0,0,1,143.82,138Z" fill="#231f20"></path><path d="M118.62,66.51a11,11,0,0,0-4.09-1.65A13.18,13.18,0,0,0,105,67.57c-3.91,2.72-8.07,5.94-9.07,10.6a10.07,10.07,0,0,0,5.77,11,4.27,4.27,0,0,0,2.35.41c1.53-.24,2.55-1.63,3.6-2.77,2.73-3,5.21-3.53,9-3.92a50.74,50.74,0,0,1,7.08-.36c4.85.18,9.57,1.58,14.37,2.32,3,.46,1.74-2.68.53-3.81-2-1.87-4.09-3.64-6.24-5.33A119.77,119.77,0,0,0,118.62,66.51Z" fill="#ff3f6c"></path><path d="M180.87,145c-.06.27-.34.4-.59.51-3,1.22-6.43,1.79-9.49.71-3.6-1.27-5.51-4.49-9.12-5.6-1.31-.4-2.61-.77-3.92-1.13-1.88-.52-3.77-1-5.66-1.51-5.34-1.41-11.89-2.27-16.75-5-4-2.29-15.33-22-18.47-30.29s6.57-13.14,6.57-13.14c5.23-4.38,19,31.83,19,31.83l19.78,9.31,4.1,1.92a14.43,14.43,0,0,0,2.58,1.15c2.07.51,4.64-.45,6.65-.88a2.29,2.29,0,0,1,.86-.08,2.37,2.37,0,0,1,.59.18,10.25,10.25,0,0,1,2.39,1.3,3.43,3.43,0,0,1,1.35,2.28l-2.82-.07c-2.17-.06-3.07,2.59-2,4.33s3.77,1.94,4.81,3.71A.85.85,0,0,1,180.87,145Z" fill="#fff"></path><path d="M174.29,147.25a11.06,11.06,0,0,1-3.67-.6,15.84,15.84,0,0,1-4.6-2.86,13.62,13.62,0,0,0-4.5-2.74c-1.3-.39-2.59-.76-3.9-1.12-1.75-.48-3.52-.94-5.28-1.41l-.38-.09c-1.41-.38-2.88-.71-4.44-1.06-4.32-1-8.8-2-12.43-4C131,131,119.58,111.17,116.4,102.79s6-13.32,6.77-13.74a2,2,0,0,1,1.83-.37c2.61.68,6.43,6.37,11.35,16.92,3.31,7.09,6,14.11,6.52,15.34l19.59,9.21,4.1,1.93.67.33a8.52,8.52,0,0,0,1.82.78c1.49.37,3.36-.11,5-.53.49-.13,1-.25,1.41-.35a2.92,2.92,0,0,1,1.05-.09,3.2,3.2,0,0,1,.7.22,10.09,10.09,0,0,1,2.51,1.37,3.88,3.88,0,0,1,1.54,2.63.48.48,0,0,1-.13.39.5.5,0,0,1-.38.15l-2.82-.07a1.72,1.72,0,0,0-1.61.91,2.66,2.66,0,0,0,0,2.66,5.12,5.12,0,0,0,2.2,1.66,5.81,5.81,0,0,1,2.61,2.06,1.27,1.27,0,0,1,.19.84v0a1.31,1.31,0,0,1-.87.86A16.73,16.73,0,0,1,174.29,147.25ZM124.42,89.6a1,1,0,0,0-.65.25l-.1.07c-.38.19-9.28,4.75-6.33,12.52,3.06,8.06,14.4,27.82,18.25,30,3.5,2,7.9,3,12.15,3.94,1.57.35,3,.68,4.48,1.06l.37.1c1.77.46,3.54.92,5.3,1.41,1.31.36,2.62.73,3.92,1.13a14.51,14.51,0,0,1,4.84,2.91A14.48,14.48,0,0,0,171,145.7c3.28,1.17,6.78.27,9.13-.69a1,1,0,0,0,.28-.16,1.65,1.65,0,0,0-.08-.17A5,5,0,0,0,178.1,143a6,6,0,0,1-2.6-2,3.72,3.72,0,0,1,0-3.68,2.73,2.73,0,0,1,2.51-1.41l2.17.06a3.2,3.2,0,0,0-1-1.38,9.06,9.06,0,0,0-2.27-1.23,2.24,2.24,0,0,0-.46-.15,1.91,1.91,0,0,0-.69.08c-.43.09-.89.21-1.37.33-1.76.46-3.76,1-5.5.55a10.6,10.6,0,0,1-2-.87l-.64-.32L162,131.06l-19.78-9.3a.55.55,0,0,1-.26-.28c-3.21-8.44-12.58-30.62-17.26-31.83A1.25,1.25,0,0,0,124.42,89.6ZM180.87,145h0Zm0,0h0Z" fill="#231f20"></path><path d="M162.25,130.61l-4.5,8.84c-1.88-.52-3.77-1-5.66-1.51-5.34-1.41-11.89-2.27-16.75-5-4-2.29-14.2-15-19.1-25.22-6-12.62,8-21.15,8-21.15,5.23-4.39,18.24,34.77,18.24,34.77Z" fill="#231f20"></path><path d="M157.75,140l-.13,0c-1.75-.48-3.52-1-5.28-1.41l-.37-.1c-1.42-.37-2.89-.7-4.45-1-4.32-1-8.8-2-12.43-4-4.2-2.4-14.51-15.41-19.3-25.44-2.54-5.33-1.93-10.8,1.79-15.81a25,25,0,0,1,6.39-6,1.85,1.85,0,0,1,1.72-.33c1,.27,3.87,1.1,11,18.44,3.17,7.74,5.78,15.4,6.23,16.74l19.58,9.2a.53.53,0,0,1,.26.29.48.48,0,0,1,0,.39l-4.5,8.84A.51.51,0,0,1,157.75,140ZM125.12,86.68a.86.86,0,0,0-.57.23,24.56,24.56,0,0,0-6.19,5.78c-3.52,4.76-4.08,9.73-1.67,14.77,5.07,10.61,15.21,22.9,18.9,25,3.5,2,7.9,3,12.15,3.94,1.57.35,3,.68,4.48,1.06l.37.1c1.64.43,3.28.86,4.9,1.3l4.09-8-19.32-9.08a.51.51,0,0,1-.26-.3c-3.07-9.22-12-33.44-16.58-34.73A1.17,1.17,0,0,0,125.12,86.68Z" fill="#231f20"></path><path d="M125.93,181.54a.49.49,0,0,1-.37-.16c-4.78-5.22-15.83-23.14-16.29-23.9a.49.49,0,0,1,.16-.69.5.5,0,0,1,.68.16c.12.19,11.47,18.61,16.19,23.76a.5.5,0,0,1-.37.83Z" fill="#fff"></path><path d="M109.69,85.52a.5.5,0,0,1-.25-.93c.56-.33,13.92-8,22.37-4.69a.51.51,0,0,1,.28.65.5.5,0,0,1-.65.28c-8-3.15-21.37,4.54-21.5,4.62A.45.45,0,0,1,109.69,85.52Z" fill="#231f20"></path></g></svg>